<mxfile host="app.diagrams.net" modified="2022-03-30T09:28:10.305Z" agent="5.0 (Windows NT 10.0; Win64; x64) AppleWebKit/537.36 (KHTML, like Gecko) Chrome/98.0.4758.119 YaBrowser/22.3.0.2430 Yowser/2.5 Safari/537.36" etag="2EogUBGQ0omzzIdCwXOX" version="17.2.4" type="github">
  <diagram id="S9EJnxNfIhshy9fqs_rN" name="Page-1">
    <mxGraphModel dx="772" dy="745" grid="1" gridSize="10" guides="1" tooltips="1" connect="1" arrows="1" fold="1" page="1" pageScale="1" pageWidth="827" pageHeight="1169" math="0" shadow="0">
      <root>
        <mxCell id="0" />
        <mxCell id="1" parent="0" />
        <mxCell id="3YmfPUul9H_j8ctqL-SI-8" value="" style="edgeStyle=orthogonalEdgeStyle;rounded=0;orthogonalLoop=1;jettySize=auto;html=1;fontSize=20;" edge="1" parent="1" source="3YmfPUul9H_j8ctqL-SI-1" target="3YmfPUul9H_j8ctqL-SI-2">
          <mxGeometry relative="1" as="geometry" />
        </mxCell>
        <mxCell id="3YmfPUul9H_j8ctqL-SI-1" value="&lt;font style=&quot;font-size: 20px&quot;&gt;Input&lt;/font&gt;" style="rounded=1;whiteSpace=wrap;html=1;" vertex="1" parent="1">
          <mxGeometry x="310" y="200" width="120" height="60" as="geometry" />
        </mxCell>
        <mxCell id="3YmfPUul9H_j8ctqL-SI-12" value="" style="edgeStyle=orthogonalEdgeStyle;rounded=0;orthogonalLoop=1;jettySize=auto;html=1;fontSize=20;" edge="1" parent="1" source="3YmfPUul9H_j8ctqL-SI-2" target="3YmfPUul9H_j8ctqL-SI-4">
          <mxGeometry relative="1" as="geometry" />
        </mxCell>
        <mxCell id="3YmfPUul9H_j8ctqL-SI-2" value="&lt;font style=&quot;font-size: 20px&quot;&gt;Player&lt;/font&gt;" style="rounded=1;whiteSpace=wrap;html=1;" vertex="1" parent="1">
          <mxGeometry x="310" y="300" width="120" height="60" as="geometry" />
        </mxCell>
        <mxCell id="3YmfPUul9H_j8ctqL-SI-9" value="" style="edgeStyle=orthogonalEdgeStyle;rounded=0;orthogonalLoop=1;jettySize=auto;html=1;fontSize=20;" edge="1" parent="1" source="3YmfPUul9H_j8ctqL-SI-3" target="3YmfPUul9H_j8ctqL-SI-5">
          <mxGeometry relative="1" as="geometry" />
        </mxCell>
        <mxCell id="3YmfPUul9H_j8ctqL-SI-3" value="&lt;font style=&quot;font-size: 20px&quot;&gt;Cell&lt;/font&gt;" style="rounded=1;whiteSpace=wrap;html=1;" vertex="1" parent="1">
          <mxGeometry x="470" y="300" width="120" height="60" as="geometry" />
        </mxCell>
        <mxCell id="3YmfPUul9H_j8ctqL-SI-4" value="&lt;font style=&quot;font-size: 20px&quot;&gt;Game&lt;/font&gt;" style="rounded=1;whiteSpace=wrap;html=1;" vertex="1" parent="1">
          <mxGeometry x="310" y="390" width="120" height="60" as="geometry" />
        </mxCell>
        <mxCell id="3YmfPUul9H_j8ctqL-SI-10" value="" style="edgeStyle=orthogonalEdgeStyle;rounded=0;orthogonalLoop=1;jettySize=auto;html=1;fontSize=20;" edge="1" parent="1" source="3YmfPUul9H_j8ctqL-SI-5" target="3YmfPUul9H_j8ctqL-SI-4">
          <mxGeometry relative="1" as="geometry" />
        </mxCell>
        <mxCell id="3YmfPUul9H_j8ctqL-SI-13" value="" style="edgeStyle=orthogonalEdgeStyle;rounded=0;orthogonalLoop=1;jettySize=auto;html=1;fontSize=20;" edge="1" parent="1" source="3YmfPUul9H_j8ctqL-SI-5" target="3YmfPUul9H_j8ctqL-SI-7">
          <mxGeometry relative="1" as="geometry" />
        </mxCell>
        <mxCell id="3YmfPUul9H_j8ctqL-SI-5" value="&lt;font style=&quot;font-size: 20px&quot;&gt;Field&lt;/font&gt;" style="rounded=1;whiteSpace=wrap;html=1;" vertex="1" parent="1">
          <mxGeometry x="470" y="390" width="120" height="60" as="geometry" />
        </mxCell>
        <mxCell id="3YmfPUul9H_j8ctqL-SI-11" value="" style="edgeStyle=orthogonalEdgeStyle;rounded=0;orthogonalLoop=1;jettySize=auto;html=1;fontSize=20;" edge="1" parent="1" source="3YmfPUul9H_j8ctqL-SI-6" target="3YmfPUul9H_j8ctqL-SI-4">
          <mxGeometry relative="1" as="geometry" />
        </mxCell>
        <mxCell id="3YmfPUul9H_j8ctqL-SI-6" value="&lt;font style=&quot;font-size: 20px&quot;&gt;Logic&lt;/font&gt;" style="rounded=1;whiteSpace=wrap;html=1;" vertex="1" parent="1">
          <mxGeometry x="310" y="480" width="120" height="60" as="geometry" />
        </mxCell>
        <mxCell id="3YmfPUul9H_j8ctqL-SI-7" value="&lt;font style=&quot;font-size: 20px&quot;&gt;Display&lt;/font&gt;" style="rounded=1;whiteSpace=wrap;html=1;" vertex="1" parent="1">
          <mxGeometry x="470" y="480" width="120" height="60" as="geometry" />
        </mxCell>
      </root>
    </mxGraphModel>
  </diagram>
</mxfile>
